<?xml version="1.0" encoding="UTF-8" standalone="no"?>
<!-- Created with Inkscape (http://www.inkscape.org/) -->

<svg
   xmlns:dc="http://purl.org/dc/elements/1.1/"
   xmlns:cc="http://creativecommons.org/ns#"
   xmlns:rdf="http://www.w3.org/1999/02/22-rdf-syntax-ns#"
   xmlns:svg="http://www.w3.org/2000/svg"
   xmlns="http://www.w3.org/2000/svg"
   xmlns:sodipodi="http://sodipodi.sourceforge.net/DTD/sodipodi-0.dtd"
   xmlns:inkscape="http://www.inkscape.org/namespaces/inkscape"
   width="212"
   height="200.56183"
   viewBox="0 0 56.091666 53.065318"
   version="1.1"
   id="svg1392"
   inkscape:version="0.92.0 r15299"
   sodipodi:docname="super lig.svg">
  <defs
     id="defs1386">
	
	
	

		
		
		
	
			
			
			
			
			
			
			
			
			
			
			
			
			
			
			
			
			
			
			
		</defs>
  <sodipodi:namedview
     id="base"
     pagecolor="#ffffff"
     bordercolor="#666666"
     borderopacity="1.0"
     inkscape:pageopacity="0.0"
     inkscape:pageshadow="2"
     inkscape:zoom="1.3417445"
     inkscape:cx="-45.394459"
     inkscape:cy="56.834164"
     inkscape:document-units="mm"
     inkscape:current-layer="layer1"
     showgrid="false"
     fit-margin-top="0"
     fit-margin-left="0"
     fit-margin-right="0"
     fit-margin-bottom="0"
     units="px"
     inkscape:window-width="1280"
     inkscape:window-height="744"
     inkscape:window-x="-4"
     inkscape:window-y="-4"
     inkscape:window-maximized="1" />
  <metadata
     id="metadata1389">
    <rdf:RDF>
      <cc:Work
         rdf:about="">
        <dc:format>image/svg+xml</dc:format>
        <dc:type
           rdf:resource="http://purl.org/dc/dcmitype/StillImage" />
        <dc:title></dc:title>
      </cc:Work>
    </rdf:RDF>
  </metadata>
  <g
     inkscape:label="Layer 1"
     inkscape:groupmode="layer"
     id="layer1"
     transform="translate(103.53322,-182.13725)">
    <g
       id="g1583"
       transform="translate(0.26457795,-0.26457274)">
      <g
         style="stroke-width:0.75327861"
         transform="matrix(1.3275301,0,0,1.3275301,29.695329,-89.680633)"
         id="g1567">
        <path
           style="fill:#231f20;stroke-width:0.19930495"
           inkscape:connector-curvature="0"
           d="m -100.35821,240.25118 h 0.34954 c 0.275138,1.04705 0.973364,1.63988 1.947053,1.63988 0.825352,0 1.407088,-0.48639 1.407088,-1.1745 0,-0.44417 -0.222342,-0.82444 -0.687783,-1.18475 -0.179729,-0.13698 -0.402071,-0.29595 -0.666314,-0.46557 -1.142651,-0.77229 -1.492121,-1.058 -1.830759,-1.46033 -0.243225,-0.30608 -0.380735,-0.67689 -0.380735,-1.06846 0,-0.984 0.857137,-1.67172 2.095004,-1.67172 0.30731,0 0.623701,0.0423 0.973624,0.11604 0.307311,0.0748 0.348951,0.0748 0.486521,0.0748 0.148077,0 0.211446,-0.0217 0.317752,-0.13776 h 0.285582 l 0.243228,1.76687 h -0.327936 c -0.349729,-0.89929 -1.058203,-1.46053 -1.862346,-1.46053 -0.666314,0 -1.111194,0.38118 -1.111194,0.94191 0,0.42334 0.211965,0.75102 0.719111,1.12137 0.286036,0.20081 0.614101,0.42328 0.973624,0.64595 1.079866,0.69842 1.50211,1.08908 1.735998,1.62891 0.09476,0.23266 0.147752,0.4969 0.147752,0.77249 0,1.16354 -0.984456,1.94719 -2.423131,1.94719 -0.285971,0 -0.708539,-0.043 -0.920828,-0.096 l -0.327547,-0.0735 c -0.106436,-0.0217 -0.201003,-0.0317 -0.275593,-0.0317 -0.136856,0 -0.232655,0.0209 -0.296219,0.11643 h -0.285512 z"
           id="path1414" />
        <path
           style="fill:#231f20;stroke-width:0.19930495"
           inkscape:connector-curvature="0"
           d="m -88.433692,237.9448 1.470847,-0.68759 h 0.275139 v 0.95184 c 0.824769,-0.51805 1.354811,-0.71918 1.861827,-0.71918 0.941648,0 1.661472,0.87841 1.661472,2.05245 0,1.39697 -1.249218,2.63484 -2.64502,2.63484 -0.264567,0 -0.518821,-0.0432 -0.878214,-0.14821 v 1.53422 c 0,0.70815 0.169027,0.87847 0.856485,0.87847 h 0.191015 v 0.28591 h -2.962773 v -0.28591 h 0.08458 c 0.603269,0 0.761919,-0.2226 0.761919,-1.1014 v -4.43258 c 0,-0.17986 0,-0.29596 -0.01044,-0.34934 0,-0.0737 -0.02134,-0.12654 -0.05306,-0.15839 -0.02173,-0.0316 -0.07388,-0.0638 -0.137115,-0.0743 -0.158844,-0.053 -0.233369,-0.0743 -0.476597,-0.10617 v -0.27469 z m 3.014856,3.78852 c 0.688691,0 1.175471,-0.68843 1.175471,-1.64046 0,-1.10056 -0.592633,-1.96846 -1.343979,-1.96846 -0.32852,0 -0.634533,0.11649 -1.100427,0.42374 v 2.54928 c 0.380797,0.41278 0.824769,0.6359 1.268935,0.6359 z"
           id="path1416" />
        <path
           style="fill:#231f20;stroke-width:0.19930495"
           inkscape:connector-curvature="0"
           d="m -80.351462,242.22963 c -1.227425,0 -2.052194,-0.90999 -2.052194,-2.30625 0,-1.46047 0.962339,-2.49759 2.327787,-2.49759 0.6237,0 1.18507,0.23317 1.491018,0.61384 0.14892,0.16993 0.222797,0.33909 0.328649,0.67708 0.09586,0.32858 0.147948,0.41355 0.307051,0.46557 v 0.25432 h -3.396367 c 0.03165,1.3013 0.687589,2.13677 1.682098,2.13677 0.486391,0 0.920633,-0.23181 1.439584,-0.79286 l 0.168378,0.17947 c -0.814975,0.93108 -1.449053,1.26965 -2.296004,1.26965 z m 1.100362,-3.06772 c -0.09502,-0.94184 -0.433983,-1.42829 -1.005147,-1.42829 -0.603269,0 -0.962728,0.48645 -1.079282,1.42829 z"
           id="path1418" />
        <path
           style="fill:#231f20;stroke-width:0.19930495"
           inkscape:connector-curvature="0"
           d="m -77.398419,238.14581 v -0.2431 l 1.492316,-0.47692 h 0.348886 v 1.13247 l 0.08471,-0.15865 c 0.391175,-0.709 0.65626,-0.97382 0.962792,-0.97382 0.06408,0 0.105853,0.011 0.200809,0.0431 l 0.106177,0.0309 c 0.317623,0.10618 0.518497,0.15917 0.740839,0.2121 l -0.37042,0.93107 c -0.232525,-0.053 -0.402201,-0.10527 -0.656001,-0.21177 l -0.126932,-0.0525 c -0.09574,-0.0426 -0.137635,-0.0531 -0.21216,-0.0531 -0.242579,0 -0.475494,0.22221 -0.729748,0.72929 v 1.87389 c 0,0.70848 0.169481,0.88795 0.814716,0.88795 h 0.317558 v 0.28603 h -2.963162 v -0.28603 h 0.04307 c 0.571164,0 0.709123,-0.21138 0.709123,-1.08888 v -2.29666 z"
           id="path1420" />
        <path
           style="fill:#231f20;stroke-width:0.19930495"
           inkscape:connector-curvature="0"
           d="m -73.378805,242.10283 v -0.3066 h 0.295959 c 0.603335,0 0.772426,-0.21209 0.783712,-0.97408 v -0.34849 -3.78793 -0.34902 c -0.01129,-0.76205 -0.180377,-0.97369 -0.783712,-0.97369 h -0.295959 v -0.30647 h 3.713924 v 0.30647 h -0.264307 c -0.984002,0 -1.100297,0.0951 -1.100297,0.89917 v 4.58137 0.32806 c 0.01044,0.34954 0.116295,0.42296 0.603334,0.42296 h 1.173785 c 0.772621,0 0.941648,-0.0522 1.269324,-0.42296 0.201652,-0.24335 0.306856,-0.37016 0.603788,-0.78235 h 0.33773 l -0.867123,1.71349 h -5.470158 z"
           id="path1422" />
        <path
           style="fill:#231f20;stroke-width:0.19930495"
           inkscape:connector-curvature="0"
           d="m -65.645591,234.9937 c 0.412968,0 0.698096,0.23292 0.698096,0.58194 0,0.37035 -0.29596,0.6141 -0.729684,0.6141 -0.412125,0 -0.688107,-0.23331 -0.688107,-0.5927 0,-0.37049 0.275982,-0.60334 0.719695,-0.60334 z"
           id="path1424" />
        <path
           style="fill:#231f20;stroke-width:0.19930495"
           inkscape:connector-curvature="0"
           d="m -66.999883,237.77539 1.746504,-0.46512 h 0.210733 v 3.40629 c 0,0.91026 0.137829,1.10023 0.741098,1.10023 h 0.08438 v 0.28604 h -2.771758 v -0.28604 h 0.126933 c 0.613712,0 0.751087,-0.18997 0.751087,-1.08888 v -2.04233 c 0,-0.49768 -0.0635,-0.55067 -0.888916,-0.65633 v -0.25386 z"
           id="path1426" />
        <path
           style="fill:#231f20;stroke-width:0.19930495"
           inkscape:connector-curvature="0"
           d="m -63.614737,241.5102 c 0,-0.31763 0.158973,-0.47628 0.612739,-0.62455 0.24433,-0.0833 0.349859,-0.13685 0.529393,-0.23246 -0.730656,-0.30659 -1.069164,-0.77191 -1.069164,-1.48083 0,-1.01585 0.88963,-1.74657 2.126783,-1.74657 0.571877,0 1.016108,0.14911 1.387371,0.43392 l 1.523448,-0.23266 v 0.97356 c -0.317817,0.0104 -0.624673,-0.042 -1.06884,-0.15846 0.09476,0.26464 0.126414,0.44417 0.126414,0.65542 0,0.95229 -0.920503,1.71466 -2.051999,1.71466 -0.212483,0 -0.445528,-0.0212 -0.624673,-0.0531 -0.381057,0.25387 -0.497158,0.38087 -0.497158,0.51811 0,0.31782 0.348562,0.40259 1.66037,0.42374 1.164963,0.0104 1.270946,0.0104 1.60874,0.12654 0.423736,0.13776 0.730202,0.54982 0.730202,0.98368 0,0.40233 -0.23259,0.8044 -0.666703,1.1431 -0.697318,0.53984 -1.481354,0.77288 -2.581132,0.77288 -1.249023,0 -1.915402,-0.3496 -1.915402,-1.0054 0,-0.31769 0.179534,-0.57162 0.634597,-0.91058 0.318661,-0.23266 0.338573,-0.25296 0.455517,-0.38086 -0.581995,-0.18946 -0.920503,-0.51805 -0.920503,-0.92018 z m 1.216008,1.03679 c -0.0312,0.0748 -0.05215,0.0635 -0.06298,0.0852 l -0.10514,0.1056 c -0.159103,0.16948 -0.233498,0.32761 -0.233498,0.50766 0,0.58245 0.751152,1.06839 1.639549,1.06839 0.888787,0 1.661602,-0.55028 1.661602,-1.16354 0,-0.34915 -0.222602,-0.50812 -0.741099,-0.51804 l -0.867577,-0.0319 c -0.729358,-0.0217 -0.846302,-0.0316 -1.248309,-0.0952 -0.01038,0.0318 -0.03126,0.0318 -0.04255,0.0418 z m 0.952804,-2.06334 c 0.560656,0 0.931011,-0.48588 0.931011,-1.23696 0,-0.86797 -0.423411,-1.48175 -1.026226,-1.48175 -0.571942,0 -0.942362,0.47634 -0.942362,1.20615 0,0.88886 0.434373,1.51256 1.037577,1.51256 z"
           id="path1428" />
        <path
           style="fill:#231f20;stroke-width:0.19930495"
           inkscape:connector-curvature="0"
           d="m -90.676965,242.21925 h -0.126219 v -0.84591 c -0.487039,0.31652 -0.582708,0.36951 -0.900202,0.54995 -0.401812,0.20081 -0.76127,0.30641 -1.089854,0.30641 -0.824445,0 -1.216593,-0.50715 -1.216593,-1.58689 v -1.89412 c 0,-0.48601 -0.03165,-0.53906 -0.285452,-0.6237 -0.126803,-0.0427 -0.179729,-0.0636 -0.412514,-0.10566 v -0.25432 l 1.460404,-0.33806 h 0.306207 v 2.92996 c 0,0.80408 0.275594,1.17476 0.878344,1.17476 0.317753,0 0.656326,-0.14782 1.248569,-0.56021 v -2.22284 c 0,-0.6237 -0.09515,-0.70821 -0.973559,-0.78293 v -0.26424 l 1.777702,-0.2745 h 0.275593 v 3.5966 c 0,0.47627 0.04177,0.56117 0.285517,0.56117 0.105204,0 0.254125,-0.0217 0.465506,-0.0747 v 0.27547 z"
           id="path1430" />
        <path
           style="fill:#231f20;stroke-width:0.19930495"
           inkscape:connector-curvature="0"
           d="m -92.879765,235.35225 c 0.41245,0 0.698096,0.23247 0.698096,0.58194 0,0.37041 -0.296219,0.61384 -0.729812,0.61384 -0.41219,0 -0.688043,-0.2335 -0.688043,-0.59244 -6.5e-5,-0.37087 0.275723,-0.60334 0.719759,-0.60334 z"
           id="path1432" />
        <path
           style="fill:#231f20;stroke-width:0.19930495"
           inkscape:connector-curvature="0"
           d="m -90.853256,235.35225 c 0.412903,0 0.698485,0.23247 0.698485,0.58194 0,0.37041 -0.296024,0.61384 -0.729554,0.61384 -0.412514,0 -0.688042,-0.2335 -0.688042,-0.59244 0,-0.37087 0.275528,-0.60334 0.719111,-0.60334 z"
           id="path1434" />
      </g>
      <path
         style="fill:#939393;stroke-width:0.26458332"
         inkscape:connector-curvature="0"
         d="m -63.078903,189.98696 c -0.02362,-0.25101 -0.09569,-1.0146 -0.540517,-1.0146 -0.280097,0 -0.535347,0.33086 -0.585193,0.39947 -0.718143,0.68365 -1.454804,1.3031 -2.189693,1.84083 -2.973343,2.17057 -6.167832,3.21272 -9.475902,3.09488 -6.570233,-0.23409 -11.47007,-5.00515 -11.518759,-5.05331 l -0.07477,-0.0738 -0.415746,0.44152 2.31e-4,0.0412 c 0.04097,6.06907 1.436441,10.70609 2.599806,13.52726 1.262055,3.06031 2.533908,4.70872 2.54664,4.725 l 0.175388,0.225 0.0882,-3.10861 -0.01828,-0.0273 c -2.599497,-3.87845 -3.765716,-10.79206 -3.97058,-12.12023 3.411854,2.18521 6.969542,3.36863 10.578313,3.51833 0.26042,0.0112 0.524543,0.0164 0.784963,0.0164 4.605004,0 8.09479,-1.66097 9.765183,-2.65095 0.320838,-0.18967 0.555873,-0.34438 0.700165,-0.44369 -0.517369,17.92842 -11.309341,19.86934 -15.938881,19.86934 -0.930492,0 -1.510746,-0.0855 -1.516457,-0.0864 l -0.127624,-0.0192 0.01,0.12863 c 0.238662,3.04256 1.131035,3.42034 1.168921,3.43484 l 0.02261,0.008 0.02415,-0.002 c 4.465571,-0.43473 8.186919,-2.10999 11.060494,-4.97907 2.297177,-2.29325 4.058931,-5.34916 5.236725,-9.08255 2.002806,-6.34777 1.614914,-12.54454 1.610594,-12.60912 z"
         id="path1438" />
      <polygon
         transform="matrix(0.07716158,0,0,0.07716158,-141.08053,151.19374)"
         style="fill:#e21937;stroke-width:3.42895198"
         points="940.823,418.53 929.659,448.029 947.632,473.946 916.121,472.446 897.017,497.548 888.706,467.131 858.94,456.721 885.317,439.418 886.013,407.88 910.613,427.614 "
         id="polygon1440" />
    </g>
  </g>
</svg>
